<svg xmlns="http://www.w3.org/2000/svg" width="60.586" height="59.372" viewBox="0 0 60.586 59.372">
  <path id="Artboard_1_copy_2" data-name="Artboard 1 copy 2" d="M68.94,40.231V41.3a2.756,2.756,0,0,1-3.119,2.031c-.948-.058-1.9,0-2.845-.011-1.088,0-2.213.182-3.114-.79a9.969,9.969,0,0,0,.063,6.555.735.735,0,0,0,.5.364,2.792,2.792,0,0,1,2.025,1.386,3.042,3.042,0,0,1,.232,2.308c.21.013.384.021.558.033a2.8,2.8,0,0,1,2.7,2.63,2.759,2.759,0,0,1-2.371,2.861c-.357.063-.446.25-.53.515a10.248,10.248,0,0,0-.187,5.711c.172.689.367,1.184,1.227,1.38a2.583,2.583,0,0,1,1.829,2.937A2.758,2.758,0,0,1,63,71.595H17.572a9.02,9.02,0,0,1-1.763-.158,9.216,9.216,0,0,1-.782-17.905c.141-.041.278-.1.457-.158-3.223-2.529-4.66-5.749-3.729-9.714.975-4.145,3.836-6.407,8.024-7.139v-.582c0-2.529-.014-5.049.011-7.572a.7.7,0,0,0-.575-.79q-4.192-1.423-8.378-2.883a1.878,1.878,0,0,1-.009-3.669Q17.909,18.563,25,16.107a2.673,2.673,0,0,1,.451-.133A.874.874,0,0,1,26,17.625a4.665,4.665,0,0,1-.607.231q-6.834,2.371-13.669,4.733c-.188.065-.371.145-.721.283l8.724,3.018c.035-.212.062-.345.079-.474a2.213,2.213,0,0,1,1.9-1.973,93.5,93.5,0,0,1,10.68-1.227,88.578,88.578,0,0,1,20.2,1.227,2.209,2.209,0,0,1,1.933,2.136c.008.089.03.179.054.316l8.724-3.022c-.3-.131-.419-.191-.544-.234q-12.192-4.221-24.382-8.444a3.6,3.6,0,0,0-2.482.016c-1.91.678-3.827,1.336-5.744,1.995-.688.236-1.176.041-1.347-.514s.093-.92.79-1.162c1.84-.632,3.693-1.244,5.518-1.925a5.78,5.78,0,0,1,4.091-.009q12.072,4.211,24.159,8.37a1.957,1.957,0,0,1,1.593,2.229v5.443a.621.621,0,0,0,.433.7,3.58,3.58,0,0,1,1.677,5.315.8.8,0,0,0-.158.564C67.557,36.9,68.253,38.562,68.94,40.231Zm-23.4,18.463H18c-.2,0-.4-.008-.591.008A3.559,3.559,0,0,0,14.172,61a3.493,3.493,0,0,0,.726,3.9,3.784,3.784,0,0,0,2.986,1.159q17.009-.019,34.016,0c1.138,0,1.571.24,1.581.877s-.4.9-1.544.9H18.1c-.275,0-.552,0-.828-.011a5.455,5.455,0,0,1,.55-10.9H62.6c.217,0,.435.013.65-.008a.994.994,0,0,0,.918-.922.977.977,0,0,0-.813-1.013,4.094,4.094,0,0,0-.764-.041H17.457a7.437,7.437,0,0,0,.22,14.872H62.815a2.582,2.582,0,0,0,.531-.019.945.945,0,0,0,.819-.948.9.9,0,0,0-.722-.956,2.888,2.888,0,0,0-.7-.063h-5.8c-.677,0-1.042-.3-1.059-.844s.371-.918,1.056-.925c1.265-.013,2.529,0,3.794,0,.185,0,.37-.017.609-.03a12.2,12.2,0,0,1-.021-7.283H52.769v.675c0,1.382.009,2.762,0,4.142a.887.887,0,0,1-1.307.906c-.632-.228-1.239-.514-1.875-.718a1.462,1.462,0,0,0-.828,0c-.6.188-1.174.452-1.766.672-.887.332-1.415-.033-1.423-.993-.011-.67,0-1.34,0-2.011ZM31.16,42.085v.678c0,1.322.008,2.643,0,3.965,0,.961-.593,1.423-1.412.982a4.305,4.305,0,0,0-4.434.013c-.771.42-1.355-.03-1.363-.911-.011-1.361,0-2.722,0-4.082v-.593a31.56,31.56,0,0,0-4.029.032,3.563,3.563,0,0,0-2.855,4.124,3.672,3.672,0,0,0,3.794,3.125c2.327.014,4.654,0,6.981,0,.669,0,1.031.33,1.029.879s-.376.884-1.034.887c-2.385.009-4.774.058-7.158-.011a5.463,5.463,0,1,1,.4-10.915H58.466A2.7,2.7,0,0,0,59,40.247a.474.474,0,0,0,.316-.2c.231-.555.43-1.121.665-1.75H27.959c-2.5,0-5.011-.06-7.513.024a7.048,7.048,0,0,0-6.511,4.355,7.4,7.4,0,0,0,6.892,10.468q19.434.019,38.866,0a2.8,2.8,0,0,0,.53-.024.9.9,0,0,0,.8-.948.887.887,0,0,0-.781-.96,3.974,3.974,0,0,0-.765-.033h-26.8a3.307,3.307,0,0,1-.762-.057.865.865,0,0,1,.063-1.685,4.785,4.785,0,0,1,.768-.03H58.134a12.377,12.377,0,0,1-.011-7.336Zm-9.567-5.594H52.708V33.472H47.534c-.727,0-1.135-.343-1.118-.918s.394-.85,1.114-.852h5.215V26.23c0-.985,0-1.016-1-1.132-3.32-.384-6.639-.862-9.979-1.088a81.443,81.443,0,0,0-19.489,1.129c-.575.1-.746.348-.737.9.025,1.478,0,2.956,0,4.434V31.7h21.07a4.443,4.443,0,0,1,.65.017.806.806,0,0,1,.745.79.79.79,0,0,1-.6.9,2.458,2.458,0,0,1-.7.065H21.594Zm32.927.043h.7c1.5,0,2.994.013,4.491,0,1.276-.014.9.217,1.4-.96a1.044,1.044,0,0,0,.046-.79,3.621,3.621,0,0,1,1.685-5.492c.133-.062.316-.221.316-.337.022-1.355.013-2.708.013-4.091a1.906,1.906,0,0,0-.286.043c-2.657.92-5.31,1.853-7.973,2.754-.39.131-.387.362-.387.667v8.206Zm8.267-.357c-.56,1.378-1.156,2.812-1.72,4.257a.738.738,0,0,0,.76,1.107q2.213.017,4.434,0c.768,0,1.067-.447.781-1.17-.544-1.372-1.107-2.736-1.663-4.1-.027-.066-.087-.119-.066-.092ZM47.357,62.439a2.937,2.937,0,0,1,3.585-.03V58.726H47.357ZM25.751,45.734a3.012,3.012,0,0,1,3.584-.032V42.09H25.751ZM62.284,32.645a1.777,1.777,0,1,0,.527-1.273A1.789,1.789,0,0,0,62.284,32.645Z" transform="translate(-8.354 -12.224)" fill="#fff"/>
</svg>
