<svg xmlns="http://www.w3.org/2000/svg" width="39.98" height="59.364" viewBox="0 0 39.98 59.364">
  <path id="Artboard_1_copy" data-name="Artboard 1 copy" d="M75.238,71.611a2.741,2.741,0,0,1-1.709-2.943c.041-5.6.022-11.2.014-16.807a8.243,8.243,0,0,1,1.143-4.652,7.958,7.958,0,0,1,3.862-3.184c3.161-1.227,6.314-2.461,9.485-3.674.384-.147.474-.346.517-.746a2.878,2.878,0,0,0-1.086-2.747,6.778,6.778,0,0,1-2.109-4.031c-.062-.316-.144-.474-.514-.544A3.639,3.639,0,0,1,82.47,26.6a1.555,1.555,0,0,0,.194-.754,44.4,44.4,0,0,1,.213-4.621,10.63,10.63,0,0,1,8.952-8.852,3.2,3.2,0,0,0,.427-.125H94.57c.484.112.969.215,1.45.337A10.721,10.721,0,0,1,104.166,22.8c.025,1,0,2.009.022,3.015a1.47,1.47,0,0,0,.229.741,3.7,3.7,0,0,1-2.36,5.729c-.34.063-.49.166-.553.515a8.088,8.088,0,0,1-2.637,4.643,1.242,1.242,0,0,0-.338.778c-.04.632-.217,1.423.082,1.864s1.107.537,1.695.768c2.656,1.034,5.314,2.055,7.97,3.092a7.675,7.675,0,0,1,5.216,7.512c.027,1.8.021,3.593-.009,5.39a1.533,1.533,0,0,1-.316.939.8.8,0,0,1-1.353-.414,3.242,3.242,0,0,1-.047-.691c-.016-1.952.035-3.906-.057-5.849a5.553,5.553,0,0,0-3.478-5.006c-1.959-.893-4.009-1.581-6.021-2.371A.885.885,0,0,0,102,43.44l-2.159,4.331-.286.569c-.748,1.5-1.405,1.712-2.845.895a1.975,1.975,0,0,0-.579,1.952c.847,4.769,1.628,9.549,2.436,14.326A1.682,1.682,0,0,1,98.091,67q-1.076,1.176-2.14,2.358c-.125.138-.243.283-.413.484h9.326v-16.6c0-.933.281-1.356.89-1.345.583.011.846.419.846,1.322V69.872h4.35c.678,0,.8-.123.8-.817v-7.3a4.729,4.729,0,0,1,.028-.632.838.838,0,0,1,1.66-.038,3.532,3.532,0,0,1,.044.632c0,2.319-.04,4.638.019,6.955a2.711,2.711,0,0,1-1.707,2.947H87.851c-.357-.223-.656-.474-.6-.963s.406-.77,1.037-.775h3.266c-.934-1.034-1.77-1.962-2.611-2.885a1.7,1.7,0,0,1-.474-1.487c.811-4.794,1.6-9.592,2.453-14.377a2,2,0,0,0-.59-1.9c-1.423.809-2.106.6-2.825-.841l-.316-.621c-.721-1.446-1.442-2.893-2.177-4.371-.217.076-.4.133-.572.2L79.61,45.481A6.067,6.067,0,0,0,75.282,51.8V68.955c0,.809.1.912.885.912h3.759c.158,0,.329-.022.511-.036V53.263a4.425,4.425,0,0,1,.014-.58.853.853,0,0,1,1.693-.065,3.02,3.02,0,0,1,.03.632V69.874c.672,0,1.252-.025,1.827,0a.85.85,0,0,1,.749,1.31,3.705,3.705,0,0,1-.371.42ZM86.924,25.574c0,1.876-.008,3.669,0,5.463a9.2,9.2,0,0,0,.112,1.382,6.447,6.447,0,0,0,6.935,5.242,6.319,6.319,0,0,0,5.912-5.972c.068-2.121.028-4.248.024-6.372a.844.844,0,0,0-.166-.523c-.632-.721-1.3-1.423-1.976-2.151A18.724,18.724,0,0,1,86.924,25.574Zm-2.469-.37c.316-.128.724-.158.8-.345.449-.993,1.265-1.058,2.178-1.023a15.234,15.234,0,0,0,6.54-1.216c.972-.409,1.9-.937,2.826-1.44.632-.345,1.317-.55,1.876,0,.98.948,1.875,1.992,2.8,3a.409.409,0,0,1,.122.258c-.041.59.348.632.884.64a30.939,30.939,0,0,0-.175-3.394,8.984,8.984,0,0,0-14.862-5.4C84.77,18.62,84.157,21.7,84.455,25.2ZM94.33,50.923H92.721c-.044.22-.09.424-.126.632l-.632,3.765q-.847,5.022-1.685,10.043a.762.762,0,0,0,.049.536c1.04,1.182,2.106,2.343,3.195,3.544.972-1.07,1.875-2.125,2.845-3.109a1.338,1.338,0,0,0,.357-1.342c-.5-2.868-.98-5.741-1.467-8.612C94.944,54.575,94.643,52.768,94.33,50.923Zm2.387-12.136a8.842,8.842,0,0,1-6.412.057,2.676,2.676,0,0,0,.605,2.442c.8.83,1.469,1.786,2.2,2.687.126.158.266.3.425.482.85-1.051,1.592-2.095,2.468-3.011A2.834,2.834,0,0,0,96.717,38.788Zm1.119,9.08c.86-1.723,1.695-3.4,2.55-5.115-.27-.106-.474-.191-.694-.272-.574-.217-1.227-.707-1.7-.572-.507.144-.857.873-1.257,1.359-.656.79-1.3,1.6-1.959,2.425Zm-5.58-2.178c-1.018-1.265-2-2.474-2.983-3.678-.071-.085-.242-.179-.316-.149-.765.28-1.522.586-2.3.895.866,1.739,1.7,3.4,2.55,5.111Zm9.445-18.9v3.761a1.9,1.9,0,0,0,1.639-1.96,1.867,1.867,0,0,0-1.638-1.8Zm-6.43,21.4c-.545-.392-1.023-.746-1.516-1.075a.474.474,0,0,0-.4-.052c-.536.354-1.05.741-1.563,1.107.624,1.015.624.983,2.34,1.007C94.853,49.188,94.88,48.581,95.271,48.185ZM85.162,26.845a1.884,1.884,0,0,0-1.635,1.887,1.831,1.831,0,0,0,1.635,1.8Z" transform="translate(-73.529 -12.25)" fill="#fff"/>
</svg>
