<svg id="Artboard_1_copy_3" data-name="Artboard 1 copy 3" xmlns="http://www.w3.org/2000/svg" width="61.418" height="47.225" viewBox="0 0 61.418 47.225">
  <path id="Path_6863" data-name="Path 6863" d="M5.73,93.189c1.067-2.072,2.036-4.2,3.228-6.2a13.062,13.062,0,0,0,1.728-7.161c-.114-8.99-.044-17.983-.043-26.974,0-1.6.609-2.213,2.2-2.213H60.013c1.59,0,2.2.616,2.2,2.213q0,15.046.013,30.091a2.921,2.921,0,0,0,.3,1.244c1.386,2.785,2.82,5.548,4.2,8.34a5.038,5.038,0,0,1,.384,1.581,11.5,11.5,0,0,1,.011,1.617,2.069,2.069,0,0,1-1.959,2.107,6.786,6.786,0,0,1-.718.016q-27.965,0-55.927.016a2.647,2.647,0,0,1-2.792-1.56Zm6.751-40.743V82.857H60.364V52.447Zm32.511,40.1H64.735c-1.257-2.477-2.491-4.891-3.7-7.317a.818.818,0,0,0-.858-.537q-23.765.019-47.535,0a.78.78,0,0,0-.817.507c-1.137,2.287-2.3,4.561-3.454,6.838-.084.158-.158.332-.243.515H27.865c.305-1.107.6-2.191.9-3.266a1.788,1.788,0,0,1,1.984-1.524q5.664-.009,11.329,0A1.791,1.791,0,0,1,44.1,89.313C44.4,90.388,44.694,91.463,44.993,92.548ZM7.548,94.41c-.008.177-.019.294-.019.411,0,1.333-.147,1.233,1.211,1.233H64.3a1.769,1.769,0,0,0,.594-.017c.175-.066.392-.232.414-.381a9.041,9.041,0,0,0,.019-1.246Zm35.575-1.838c-.253-.931-.482-1.835-.754-2.725a.556.556,0,0,0-.433-.272q-5.509-.024-11.015,0a.548.548,0,0,0-.432.273c-.272.89-.5,1.793-.754,2.724Z" transform="translate(-5.73 -50.64)" fill="#fff"/>
  <path id="Path_6864" data-name="Path 6864" d="M102.595,75.926H62.055v8.691c0,.237.038.55-.09.694-.229.256-.582.577-.863.56s-.579-.387-.8-.659c-.1-.125-.043-.386-.043-.585V75.932c0-1.3.52-1.832,1.8-1.832h40.529c1.284,0,1.8.533,1.805,1.829v8.694c0,.2.058.46-.043.585-.22.273-.512.642-.79.661s-.643-.3-.862-.556c-.138-.158-.093-.495-.095-.752C102.593,81.7,102.595,78.847,102.595,75.926Z" transform="translate(-51.626 -70.392)" fill="#fff"/>
  <path id="Path_6865" data-name="Path 6865" d="M62.066,178.051h40.54v-8.675c0-.237-.036-.55.092-.692.229-.253.583-.568.865-.549s.577.383.79.651c.1.125.043.386.044.585v8.694c0,1.314-.492,1.812-1.8,1.812H62.078c-1.326,0-1.818-.488-1.818-1.8V169.33a2.664,2.664,0,0,1,.017-.474.837.837,0,0,1,.8-.756.825.825,0,0,1,.928.672,2.568,2.568,0,0,1,.047.654q0,3.952,0,7.9Z" transform="translate(-51.637 -149.529)" fill="#fff"/>
</svg>
